<?xml version="1.0" encoding="UTF-8" standalone="no"?>
<svg
   xmlns:dc="http://purl.org/dc/elements/1.1/"
   xmlns:cc="http://creativecommons.org/ns#"
   xmlns:rdf="http://www.w3.org/1999/02/22-rdf-syntax-ns#"
   xmlns:svg="http://www.w3.org/2000/svg"
   xmlns="http://www.w3.org/2000/svg"
   xmlns:sodipodi="http://sodipodi.sourceforge.net/DTD/sodipodi-0.dtd"
   xmlns:inkscape="http://www.inkscape.org/namespaces/inkscape"
   version="1.1"
   id="Layer_1"
   x="0px"
   y="0px"
   viewBox="0 0 368 66.7"
   perserveAspectRatio="xMinYMid"
   xml:space="preserve"
   inkscape:version="0.48.4 r9939"
   width="100%"
   height="100%"
   sodipodi:docname="futuremark-logo.svg"><metadata
     id="metadata45"><rdf:RDF><cc:Work
         rdf:about=""><dc:format>image/svg+xml</dc:format><dc:type
           rdf:resource="http://purl.org/dc/dcmitype/StillImage" /><dc:title></dc:title></cc:Work></rdf:RDF></metadata><defs
     id="defs43" /><sodipodi:namedview
     pagecolor="#ffffff"
     bordercolor="#666666"
     borderopacity="1"
     objecttolerance="10"
     gridtolerance="10"
     guidetolerance="10"
     inkscape:pageopacity="0"
     inkscape:pageshadow="2"
     inkscape:window-width="640"
     inkscape:window-height="480"
     id="namedview41"
     showgrid="false"
     inkscape:zoom="2.7509398"
     inkscape:cx="16.33372"
     inkscape:cy="33.35"
     inkscape:window-x="75"
     inkscape:window-y="34"
     inkscape:window-maximized="0"
     inkscape:current-layer="Layer_1" /><path
     inkscape:connector-curvature="0"
     id="path5"
     d="m 124.6,23.9 h -4.9 v 11.2 c 0,2.5 -0.9,3.4 -3.3,3.4 h -4.8 c -2.4,0 -3.3,-0.9 -3.3,-3.4 V 23.9 h -4.9 c -0.6,0 -1.1,0.5 -1.1,1.1 v 11.4 c 0,4.8 2.5,7.1 8,7.1 l 7.4,0 c 5.5,0 7.9,-2.3 7.9,-7.1 V 25 c 0.1,-0.6 -0.4,-1.1 -1,-1.1"
     style="fill:#ffffff" /><path
     inkscape:connector-curvature="0"
     id="path7"
     d="m 363,17.3 c 0,-0.8 -0.5,-1.2 -1.5,-1.2 H 360 v 4 h 0.7 v -1.7 h 0.6 l 1,1.7 h 0.7 l -1.1,-1.8 c 0.6,0.1 1.1,-0.2 1.1,-1 m -2.3,0.6 v -1.2 h 0.8 c 0.4,0 0.9,0.1 0.9,0.5 0,0.6 -0.4,0.6 -0.9,0.6 h -0.8 z"
     style="fill:#ffffff" /><path
     inkscape:connector-curvature="0"
     id="path9"
     d="m 149.9,23.9 h -20.5 c -0.6,0 -1.1,0.5 -1.1,1.1 v 3.6 h 8.4 v 13.6 c 0,0.6 0.5,1.1 1.1,1.1 h 4.8 V 28.6 H 151 V 25 c 0,-0.6 -0.5,-1.1 -1.1,-1.1"
     style="fill:#ffffff" /><path
     inkscape:connector-curvature="0"
     id="path11"
     d="M 177,36.4 V 25 c 0,-0.6 -0.5,-1.1 -1.1,-1.1 H 171 v 11.2 c 0,2.5 -0.9,3.4 -3.3,3.4 h -4.8 c -2.4,0 -3.3,-0.9 -3.3,-3.4 V 23.9 h -4.9 c -0.6,0 -1.1,0.5 -1.1,1.1 v 11.4 c 0,4.8 2.5,7.1 8,7.1 l 7.4,0 c 5.5,0 8,-2.3 8,-7.1"
     style="fill:#ffffff" /><path
     inkscape:connector-curvature="0"
     id="path13"
     d="m 209.2,35.7 24.7,0 c 0.2,0 0.4,-0.2 0.4,-0.4 v -3.9 c 0,-0.2 -0.2,-0.4 -0.4,-0.4 h -24.7 c -0.2,0 -0.4,0.2 -0.4,0.4 v 3.9 c 0,0.2 0.2,0.4 0.4,0.4"
     style="fill:#ffffff" /><path
     inkscape:connector-curvature="0"
     id="path15"
     d="M 209.2,28.4 H 234 c 0.2,0 0.4,-0.2 0.4,-0.4 v -3.9 c 0,-0.2 -0.2,-0.4 -0.4,-0.4 h -24.7 c -0.2,0 -0.4,0.2 -0.4,0.4 V 28 c -0.1,0.2 0.1,0.4 0.3,0.4"
     style="fill:#ffffff" /><path
     inkscape:connector-curvature="0"
     id="path17"
     d="m 361.4,14.5 c -1.9,0 -3.6,1.4 -3.6,3.6 0,2.1 1.5,3.6 3.6,3.6 1.9,0 3.5,-1.4 3.5,-3.6 0,-2.1 -1.6,-3.6 -3.5,-3.6 m 0,6.6 c -1.7,0 -2.8,-1.3 -2.8,-3 0,-1.8 1.2,-3 2.8,-3 1.5,0 2.7,1.2 2.7,3 0,1.8 -1.2,3 -2.7,3"
     style="fill:#ffffff" /><path
     inkscape:connector-curvature="0"
     id="path19"
     d="m 78.5,25 v 16 1.2 c 0,0.6 0.5,1.1 1.1,1.1 h 4.9 V 36.7 H 98.1 V 32.2 H 84.4 V 28.6 H 98.7 V 23.9 H 79.6 c -0.6,0 -1.1,0.5 -1.1,1.1"
     style="fill:#ffffff" /><path
     inkscape:connector-curvature="0"
     id="path21"
     d="m 269,43.3 c 0.6,0 1.1,-0.5 1.1,-1.1 V 25 c 0,-0.6 -0.5,-1.1 -1.1,-1.1 h -8 l -6.7,12.5 -6.7,-12.5 h -8 c -0.6,0 -1.1,0.5 -1.1,1.1 v 17.2 c 0,0.6 0.5,1.1 1.1,1.1 h 4.7 V 29.4 l 7.9,13.9 h 4.4 l 7.8,-13.9 v 13.9 h 4.6 z"
     style="fill:#ffffff" /><path
     inkscape:connector-curvature="0"
     id="path23"
     d="m 321.3,23.9 h -16.9 c -0.6,0 -1.1,0.5 -1.1,1.1 v 17.2 c 0,0.6 0.5,1.1 1.1,1.1 h 4.9 v -5 h 9.4 c 1.9,0 2.4,0.7 2.4,2.7 l 0,1.2 c 0,0.6 0.5,1.1 1.1,1.1 h 4.9 v -3.4 c 0,-3.1 -1.5,-3.9 -3.3,-4.3 2.7,-0.6 3.3,-2.2 3.3,-4.8 v -1.2 c 0,-3.4 -1.2,-5.7 -5.8,-5.7 m 0,7.5 c 0,1.4 -0.6,2 -2.2,2 h -9.8 v -4.7 h 9.3 c 1.9,0 2.7,0.3 2.7,2 v 0.7 z"
     style="fill:#ffffff" /><path
     inkscape:connector-curvature="0"
     id="path25"
     d="m 234,38.5 h -24.8 c -0.2,0 -0.4,0.2 -0.4,0.4 v 4 c 0,0.2 0.2,0.4 0.4,0.4 H 234 c 0.2,0 0.4,-0.2 0.4,-0.4 v -4 c 0,-0.2 -0.2,-0.4 -0.4,-0.4"
     style="fill:#ffffff" /><path
     inkscape:connector-curvature="0"
     id="path27"
     d="m 355.2,23.9 h -8.1 l -7.5,7.1 h -2.8 V 23.9 H 332 c -0.6,0 -1.1,0.5 -1.1,1.1 v 1.2 16.1 c 0,0.6 0.5,1.1 1.1,1.1 h 4.9 V 36 h 2.6 l 8.6,7.4 h 8.4 l -11.7,-9.9 10.4,-9.6 z"
     style="fill:#ffffff" /><path
     inkscape:connector-curvature="0"
     id="path29"
     d="m 199,23.9 h -16.9 c -0.6,0 -1.1,0.5 -1.1,1.1 v 17.2 c 0,0.6 0.5,1.1 1.1,1.1 h 4.9 v -5 h 9.4 c 1.8,0 2.4,0.7 2.4,2.7 l 0,1.2 c 0,0.6 0.5,1.1 1.1,1.1 h 4.9 v -3.4 c 0,-3.1 -1.5,-3.9 -3.3,-4.3 2.7,-0.6 3.3,-2.2 3.3,-4.8 v -1.2 c 0,-3.4 -1.2,-5.7 -5.8,-5.7 m 0,7.5 c 0,1.4 -0.6,2 -2.2,2 H 187 v -4.7 h 9.3 c 1.9,0 2.7,0.3 2.7,2 v 0.7 z"
     style="fill:#ffffff" /><path
     inkscape:connector-curvature="0"
     id="path31"
     d="m 282.8,23.9 -10.5,19.4 h 6.6 l 1.7,-3.4 h 12.1 l 1.9,3.4 h 6.6 L 290.5,23.9 h -7.7 z m 0.1,11.8 3.8,-7.3 3.9,7.3 h -7.7 z"
     style="fill:#ffffff" /><path
     sodipodi:type="arc"
     style="fill:#ffffff"
     id="path3059"
     sodipodi:cx="32.716091"
     sodipodi:cy="32.711617"
     sodipodi:rx="29.444483"
     sodipodi:ry="27.808678"
     d="m 62.160574,32.711617 a 29.444483,27.808678 0 1 1 -58.8889656,0 29.444483,27.808678 0 1 1 58.8889656,0 z"
     transform="matrix(0.97530864,0,0,1,2.4442844,1.0905365)" /><path
     style="fill:#fd7d16"
     inkscape:connector-curvature="0"
     id="path33"
     d="M 50.6,40.2 H 18.7 c -0.2,0 -0.4,0.2 -0.4,0.4 V 46 c 0,0.2 0.2,0.4 0.4,0.4 h 31.9 c 0.2,0 0.4,-0.2 0.4,-0.4 v -5.3 c 0,-0.3 -0.2,-0.5 -0.4,-0.5" /><path
     style="fill:#fd7d16"
     inkscape:connector-curvature="0"
     id="path35"
     d="M 50.6,30.4 H 18.7 c -0.2,0 -0.4,0.2 -0.4,0.4 v 5.3 c 0,0.2 0.2,0.4 0.4,0.4 h 31.9 c 0.2,0 0.4,-0.2 0.4,-0.4 v -5.3 c 0,-0.2 -0.2,-0.4 -0.4,-0.4" /><path
     style="fill:#fd7d16"
     inkscape:connector-curvature="0"
     id="path37"
     d="M 50.6,21.1 H 18.7 c -0.2,0 -0.4,0.2 -0.4,0.4 v 5.3 c 0,0.2 0.2,0.4 0.4,0.4 h 31.9 c 0.2,0 0.4,-0.2 0.4,-0.4 v -5.3 c 0,-0.2 -0.2,-0.4 -0.4,-0.4" /><path
     style="fill:#fd7d16"
     inkscape:connector-curvature="0"
     id="path39"
     d="M 34.6,4 C 18.2,4 4.9,17.4 4.9,33.8 c 0,1.9 0.2,3.7 0.5,5.5 0.1,0.4 0.2,0.9 0.3,1.4 3.1,13.1 14.9,22.8 28.9,22.8 13.8,0 25.4,-9.4 28.8,-22.1 0.3,-1.2 0.6,-2.5 0.5,-2.3 0,0 0,0 0,0 0.3,-1.7 0.5,-3.5 0.5,-5.4 C 64.4,17.4 51,4 34.6,4 M 59.4,38.7 C 59.3,39.3 59.1,40 58.9,40.6 55.9,51.2 46.1,59 34.6,59 23,59 13.2,51.1 10.2,40.4 10.1,40 10,39.6 9.9,39.2 9.5,37.4 9.3,35.6 9.3,33.7 9.3,19.7 20.7,8.4 34.6,8.4 c 13.9,0 25.3,11.3 25.3,25.3 0,1.8 -0.2,3.4 -0.5,5" /></svg>