<?xml version="1.0" encoding="UTF-8" standalone="no"?>
<svg
   xmlns:dc="http://purl.org/dc/elements/1.1/"
   xmlns:cc="http://creativecommons.org/ns#"
   xmlns:rdf="http://www.w3.org/1999/02/22-rdf-syntax-ns#"
   xmlns:svg="http://www.w3.org/2000/svg"
   xmlns="http://www.w3.org/2000/svg"
   xmlns:sodipodi="http://sodipodi.sourceforge.net/DTD/sodipodi-0.dtd"
   xmlns:inkscape="http://www.inkscape.org/namespaces/inkscape"
   viewBox="0 0 866.33063 646.83997"
   height="646.83997"
   width="866.33063"
   xml:space="preserve"
   version="1.1"
   id="svg2"
   inkscape:version="0.48.4 r9939"
   sodipodi:docname="nvidia.svg"><sodipodi:namedview
     pagecolor="#ffffff"
     bordercolor="#666666"
     borderopacity="1"
     objecttolerance="10"
     gridtolerance="10"
     guidetolerance="10"
     inkscape:pageopacity="0"
     inkscape:pageshadow="2"
     inkscape:window-width="751"
     inkscape:window-height="480"
     id="namedview18"
     showgrid="false"
     inkscape:zoom="0.1825"
     inkscape:cx="427.72268"
     inkscape:cy="515.31676"
     inkscape:window-x="75"
     inkscape:window-y="34"
     inkscape:window-maximized="0"
     inkscape:current-layer="svg2"
     fit-margin-top="0"
     fit-margin-left="0"
     fit-margin-right="0"
     fit-margin-bottom="0" /><metadata
     id="metadata8"><rdf:RDF><cc:Work
         rdf:about=""><dc:format>image/svg+xml</dc:format><dc:type
           rdf:resource="http://purl.org/dc/dcmitype/StillImage" /><dc:title></dc:title></cc:Work></rdf:RDF></metadata><defs
     id="defs6"><clipPath
       id="clipPath16"
       clipPathUnits="userSpaceOnUse"><path
         id="path18"
         d="M 0,900 1200,900 1200,0 0,0 0,900 z"
         inkscape:connector-curvature="0" /></clipPath><clipPath
       id="clipPath26"
       clipPathUnits="userSpaceOnUse"><path
         id="path28"
         d="M 0,900 1200,900 1200,0 0,0 0,900 z"
         inkscape:connector-curvature="0" /></clipPath></defs><g
     id="g22"
     transform="matrix(1.3333333,0,0,-1.3333333,-372.27732,950.70131)"><g
       id="g24"
       clip-path="url(#clipPath26)"><path
         inkscape:connector-curvature="0"
         d="m 925.881,238.156 c 0,-4.725 -3.477,-7.9 -7.582,-7.9 l 0,0.035 c -4.221,-0.035 -7.631,3.14 -7.631,7.865 0,4.723 3.41,7.884 7.631,7.884 4.105,0 7.582,-3.161 7.582,-7.884 m 3.075,0 c 0,6.486 -5.041,10.25 -10.657,10.25 -5.656,0 -10.693,-3.764 -10.693,-10.25 0,-6.483 5.037,-10.26 10.693,-10.26 5.616,0 10.657,3.777 10.657,10.26 m -12.425,-0.865 1.141,0 2.644,-4.645 2.902,0 -2.925,4.835 c 1.512,0.111 2.758,0.83 2.758,2.868 0,2.53 -1.748,3.344 -4.701,3.344 l -4.272,0 0,-11.047 2.453,0 0,4.645 m 0,1.867 0,2.656 1.707,0 c 0.932,0 2.2,-0.069 2.2,-1.208 0,-1.229 -0.654,-1.448 -1.751,-1.448 l -2.156,0"
         style="fill:#ffffff;fill-opacity:1;fill-rule:nonzero;stroke:none"
         id="path30" /><path
         inkscape:connector-curvature="0"
         d="m 832.319,326.669 19.917,-54.5 -40.463,0 20.546,54.5 z m -21.342,21.224 -45.912,-116.333 32.42,0 7.264,20.561 54.334,0 6.876,-20.561 35.199,0 -46.262,116.342 -43.919,-0.009 z m -92.17,-116.373 32.883,0 0,116.409 -32.891,0.006 0.008,-116.415 z m -228.359,116.415 -27.44,-92.266 -26.293,92.26 -35.492,0.006 37.55,-116.415 47.388,0 37.846,116.415 -33.559,0 z m 132.959,-25.349 14.137,0 c 20.509,0 33.772,-9.21 33.772,-33.107 0,-23.902 -13.263,-33.112 -33.772,-33.112 l -14.137,0 0,66.219 z m -32.614,25.349 0,-116.415 53.328,0 c 28.413,0 37.687,4.725 47.716,15.32 7.09,7.437 11.67,23.764 11.67,41.607 0,16.364 -3.877,30.962 -10.642,40.053 -12.18,16.257 -29.729,19.435 -55.927,19.435 l -46.145,0 z m -311.585,0.162 0,-116.577 33.171,0 0,88.518 25.697,-0.009 c 8.513,0 14.575,-2.118 18.677,-6.495 5.201,-5.542 7.324,-14.475 7.324,-30.825 l 0,-51.189 32.14,0 0,64.408 c 0,45.969 -29.303,52.169 -57.969,52.169 l -59.04,0 z m 258.646,-0.159 0.011,-116.418 32.878,0 0,116.417 -32.889,10e-4 z"
         style="fill:#ffffff;fill-opacity:1;fill-rule:nonzero;stroke:none"
         id="path32" /><path
         inkscape:connector-curvature="0"
         d="m 367.608,579.729 c 0,0 42.305,62.423 126.777,68.877 l 0,22.644 c -93.561,-7.508 -174.583,-86.749 -174.583,-86.749 0,0 45.886,-132.663 174.583,-144.808 l 0,24.073 c -94.44,11.882 -126.777,115.963 -126.777,115.963 m 126.777,-68.091 0,-22.049 c -71.38,12.726 -91.19,86.924 -91.19,86.924 0,0 34.27,37.971 91.19,44.124 l 0,-24.19 c -0.045,0 -0.073,0.011 -0.112,0.011 -29.867,3.588 -53.206,-24.321 -53.206,-24.321 0,0 13.076,-46.979 53.318,-60.499 m 0,201.388 0,-41.776 c 2.745,0.218 5.493,0.391 8.252,0.492 106.376,3.583 175.678,-87.241 175.678,-87.241 0,0 -79.604,-96.797 -162.531,-96.797 -7.599,0 -14.714,0.702 -21.399,1.885 l 0,-25.823 c 5.717,-0.726 11.639,-1.155 17.819,-1.155 77.176,0 132.986,39.41 187.03,86.057 8.954,-7.175 45.639,-24.627 53.183,-32.277 -51.389,-43.016 -171.137,-77.686 -239.025,-77.686 -6.543,0 -12.835,0.395 -19.007,0.988 l 0,-36.292 293.324,0 0,309.625 -293.324,0 z m 0,-92.389 0,27.969 c 2.714,0.192 5.457,0.337 8.252,0.426 76.493,2.404 126.678,-65.728 126.678,-65.728 0,0 -54.202,-75.283 -112.317,-75.283 -8.37,0 -15.861,1.35 -22.613,3.617 l 0,84.809 c 29.778,-3.597 35.765,-16.751 53.674,-46.593 l 39.817,33.572 c 0,0 -29.065,38.121 -78.063,38.121 -5.331,0 -10.426,-0.376 -15.428,-0.91"
         style="fill:#74b71b;fill-opacity:1;fill-rule:nonzero;stroke:none"
         id="path34" /></g></g></svg>