<?xml version="1.0" encoding="UTF-8" standalone="no"?>
<!-- Created with Inkscape (http://www.inkscape.org/) -->

<svg
   xmlns:dc="http://purl.org/dc/elements/1.1/"
   xmlns:cc="http://creativecommons.org/ns#"
   xmlns:rdf="http://www.w3.org/1999/02/22-rdf-syntax-ns#"
   xmlns:svg="http://www.w3.org/2000/svg"
   xmlns="http://www.w3.org/2000/svg"
   xmlns:sodipodi="http://sodipodi.sourceforge.net/DTD/sodipodi-0.dtd"
   xmlns:inkscape="http://www.inkscape.org/namespaces/inkscape"
   id="svg2"
   version="1.1"
   inkscape:version="0.48.4 r9939"
   width="716.17"
   height="311.13125"
   xml:space="preserve"
   sodipodi:docname="Umbra_logo_white_flat_blueBG_cmyk.pdf"><metadata
     id="metadata8"><rdf:RDF><cc:Work
         rdf:about=""><dc:format>image/svg+xml</dc:format><dc:type
           rdf:resource="http://purl.org/dc/dcmitype/StillImage" /><dc:title></dc:title></cc:Work></rdf:RDF></metadata><defs
     id="defs6"><clipPath
       clipPathUnits="userSpaceOnUse"
       id="clipPath18"><path
         d="m 0,0 572.936,0 0,248.905 L 0,248.905 0,0 z"
         id="path20" /></clipPath></defs><sodipodi:namedview
     pagecolor="#ffffff"
     bordercolor="#666666"
     borderopacity="1"
     objecttolerance="10"
     gridtolerance="10"
     guidetolerance="10"
     inkscape:pageopacity="0"
     inkscape:pageshadow="2"
     inkscape:window-width="646"
     inkscape:window-height="480"
     id="namedview4"
     showgrid="false"
     inkscape:zoom="0.66743931"
     inkscape:cx="358.08499"
     inkscape:cy="155.56563"
     inkscape:window-x="65"
     inkscape:window-y="24"
     inkscape:window-maximized="0"
     inkscape:current-layer="g10" /><g
     id="g10"
     inkscape:groupmode="layer"
     inkscape:label="Umbra_logo_white_flat_blueBG_cmyk"
     transform="matrix(1.25,0,0,-1.25,0,311.13125)"><path
       d="m 0,0 572.935,0 0,248.904 L 0,248.904 0,0 z"
       style="fill:#254aa5;fill-opacity:1;fill-rule:nonzero;stroke:none"
       id="path12" /><g
       id="g14"><g
         id="g16"
         clip-path="url(#clipPath18)"><g
           id="g22"
           transform="matrix(-0.6560516,0.754715,0.3605042,1.1095276,286.46787,99.160477)"><g
             id="g24"
             transform="translate(-83.3099,125.7839)"><path
               d="m 0,0 0,-0.004 0.025,-0.013 -0.025,0 0,-76.064 -24.349,0 0,76.081 L -53.938,28.408 -0.007,0 0,0 z"
               style="fill:#ffffff;fill-opacity:1;fill-rule:nonzero;stroke:none"
               id="path26" /></g></g><g
           id="g28"
           transform="matrix(0.6560516,-0.754715,-0.3605042,-1.1095276,286.46787,99.160477)"><g
             id="g30"
             transform="translate(-209.6527,153.3081)"><path
               d="m 0,0 0,-63.256 -24.349,10e-4 0,76.081 24.349,0 0,-0.017 0.025,-10e-4 29.59,-28.407 L 0,0 z m 48.157,-19.931 -24.349,0 0,-76.082 24.349,0 0,76.082 z"
               style="fill:#ffffff;fill-opacity:1;fill-rule:nonzero;stroke:none"
               id="path32" /></g></g><g
           id="g34"
           transform="matrix(0.6560516,-0.754715,-0.3605042,-1.1095276,286.46787,99.160477)"><g
             id="g36"
             transform="translate(-53.1472,-32.9655)"><path
               d="m 0,0 -33.857,30.068 -10.347,0 -33.889,30.096 -10.358,0 0,76.082 24.35,0 0,-76.082 -10.61,0 30.507,-17.271 0,0 0,0 0,0 0,63.256 24.349,0 0.001,-76.082 -10.602,0 L 0,12.826 l 0,63.255 24.349,0 L 24.349,0 0,0 z"
               style="fill:#ffffff;fill-opacity:1;fill-rule:nonzero;stroke:none"
               id="path38" /></g></g><g
           id="g40"
           transform="matrix(0.6560516,-0.754715,-0.3605042,-1.1095276,286.46787,99.160477)"><g
             id="g42"
             transform="translate(63.4116,-95.6868)"><path
               d="m 0,0 -24.349,0 0,0.064 -0.026,-0.047 -23.781,21.436 0,-21.923 -24.35,0 0.001,109.307 24.348,10e-4 0,-0.018 0.026,0 29.589,-28.408 -29.615,15.6 0,-69.879 23.808,-13.307 0,0 0,63.255 L 0,76.081 0,0 z"
               style="fill:#ffffff;fill-opacity:1;fill-rule:nonzero;stroke:none"
               id="path44" /></g></g><g
           id="g46"
           transform="matrix(0.6560516,-0.754715,-0.3605042,-1.1095276,286.46787,99.160477)"><g
             id="g48"
             transform="translate(191.4171,-199.319)"><path
               d="m 0,0 0,7.394 -48.149,25.362 -0.008,0 0,0.004 -0.025,0.014 0.025,0 0,76.064 24.349,0 0,0 0,0 0,-0.018 0.025,0 0.001,0 0,0 18.414,-29.087 -18.44,12.542 0,-59.519 L 0,9.9 0,9.899 l 0,66.182 24.349,0 L 24.349,0 0,0 z"
               style="fill:#ffffff;fill-opacity:1;fill-rule:nonzero;stroke:none"
               id="path50" /></g></g></g></g></g></svg>